Coordinates
version=1
nRows=8
nColumns=36
inDegrees=yes

Units are S.I. units (second, meters, Newtons, ...)
If the header above contains a line with 'inDegrees', this indicates whether rotational values are in degrees (yes) or radians (no).

endheader
time	pelvis_tilt	pelvis_list	pelvis_rotation	pelvis_tx	pelvis_ty	pelvis_tz	hip_flexion_r	hip_adduction_r	hip_rotation_r	knee_angle_r	knee_angle_r_beta	ankle_angle_r	subtalar_angle_r	mtp_angle_r	hip_flexion_l	hip_adduction_l	hip_rotation_l	knee_angle_l	knee_angle_l_beta	ankle_angle_l	subtalar_angle_l	mtp_angle_l	lumbar_extension	lumbar_bending	lumbar_rotation	arm_flex_r	arm_add_r	arm_rot_r	elbow_flex_r	pro_sup_r	arm_flex_l	arm_add_l	arm_rot_l	elbow_flex_l	pro_sup_l
      1.21000000	     -8.27942682	      0.65074085	     -2.37182660	     -0.75895132	      1.32416185	     -0.57252437	     19.03896916	     -0.52197898	      2.99522870	     51.39238763	      0.89696637	    -27.85867064	    -19.26772707	     -5.07674100	     14.68466118	     -3.08970282	     -3.93822907	     43.31818247	      0.75604491	    -31.21561590	    -12.13918326	     -5.07674100	     -1.99217447	     -0.33046426	     -0.84312765	     59.35718968	    -38.85641157	     32.11122842	     83.66601388	    109.96574649	     61.50779201	    -24.34199172	     10.94429367	     64.21541122	    111.36267212
      1.22000000	     -8.35698838	      0.72372938	     -2.00230211	     -0.75015062	      1.32724435	     -0.57236582	     20.66144423	     -0.66186557	      2.73274996	     52.45504479	      0.91551324	    -27.64760007	    -19.98205945	     -5.12109311	     16.45258070	     -3.10155707	     -3.61284887	     43.85649951	      0.76544031	    -30.49012167	    -13.06533093	     -5.12109311	     -2.25794435	     -0.55384551	     -1.17607583	     58.81985237	    -40.11280840	     32.20899104	     83.91004096	    109.98726437	     61.55635718	    -25.10676994	     10.32656469	     64.22141133	    111.33398360
      1.23000000	     -8.34925754	      0.69894529	     -1.60348770	     -0.74148675	      1.32952181	     -0.57231432	     21.99885915	     -0.77837235	      2.29922353	     52.85007846	      0.92240788	    -27.22521912	    -20.68049837	     -5.14405167	     17.98129379	     -3.22401034	     -3.37151703	     43.71966965	      0.76305218	    -30.24930025	    -13.95359122	     -5.14405167	     -2.70395403	     -0.64275399	     -1.53331586	     58.37015773	    -41.35630519	     32.35506419	     84.08026892	    110.01572359	     61.67594262	    -25.88730076	      9.88988141	     63.97938841	    111.30156027
      1.24000000	     -8.44984102	      0.58385173	     -1.25750732	     -0.73304665	      1.33087924	     -0.57225328	     23.26677735	     -0.79795681	      1.97718666	     52.46817499	      0.91574241	    -26.74471416	    -21.08987212	     -5.17838459	     19.44749365	     -3.43361303	     -3.24343844	     42.89433571	      0.74864739	    -30.28382353	    -15.23038414	     -5.17838459	     -3.07689918	     -0.61317701	     -1.69193317	     57.82304014	    -42.76570090	     32.64622897	     84.24164983	    110.04156294	     61.87749029	    -26.48018867	      9.64176914	     63.51105860	    111.28718732
      1.25000000	     -8.43374601	      0.47681180	     -1.00791241	     -0.72480993	      1.33162937	     -0.57204511	     24.22996424	     -0.83464473	      1.73456105	     51.32076416	      0.89571631	    -26.36242384	    -21.14614184	     -5.18819290	     20.56825579	     -3.70013959	     -3.33847572	     41.33700908	      0.72146691	    -29.86491158	    -15.67606259	     -5.18819290	     -3.66778114	     -0.57448827	     -1.90601633	     57.40238333	    -43.80363453	     32.81506101	     84.03711230	    110.03616544	     62.03242579	    -27.27636773	      9.39129992	     63.10762901	    111.24698671
      1.26000000	     -8.14160849	      0.37581430	     -0.67830503	     -0.71650507	      1.33199852	     -0.57234468	     24.53266006	     -0.98534505	      1.37126971	     49.25231282	      0.85961502	    -25.42579334	    -20.70578482	     -5.23667641	     21.15805786	     -3.78149969	     -3.18542087	     39.06443564	      0.68180302	    -29.39430516	    -16.36529106	     -5.23667641	     -4.64598669	     -0.47119597	     -1.89383140	     57.11780454	    -45.64411263	     33.64149702	     84.28551812	    110.04201483	     62.43159286	    -27.80906110	      9.53924649	     62.19979412	    111.24214028
      1.27000000	     -8.21667586	      0.34518786	     -0.47830717	     -0.70820298	      1.33090309	     -0.57251873	     25.09195043	     -1.11397585	      1.22612116	     46.65273190	      0.81424378	    -24.75152308	    -20.66472697	     -5.24951136	     21.98989422	     -3.84112084	     -3.28990812	     36.35549847	      0.63452315	    -28.60834684	    -16.49236363	     -5.24951136	     -5.11492199	     -0.46089573	     -2.02121646	     56.60850198	    -46.86860644	     34.10040236	     84.06295483	    110.03449590	     62.39132175	    -28.64098725	      9.53526377	     61.75608586	    111.21749090
      1.28000000	     -7.45004685	      0.25800876	     -0.28811632	     -0.69960228	      1.33018537	     -0.57276402	     24.41803868	     -1.23998643	      1.02367218	     43.42309987	      0.75787606	    -23.76502182	    -19.79687627	     -5.29913621	     21.62162970	     -3.90012563	     -3.33687987	     33.08882713	      0.57750898	    -27.63478782	    -15.78647002	     -5.29913621	     -6.72926336	     -0.37903535	     -1.87595163	     56.60928246	    -48.82900993	     35.22349801	     84.33944293	    109.86918597	     62.95651313	    -29.38100302	     10.21992730	     61.07095743	    111.13296095
